#N canvas 256 59 885 618 10;
#X msg 85 280 bang;
#X obj 253 33 loadbang;
#X msg 304 54 1;
#X obj 198 466 print;
#X floatatom 140 80 5 0 0 0 - - -;
#X floatatom 247 314 5 0 0 0 - - -;
#X obj 177 177 random 11;
#X floatatom 170 292 5 0 0 0 - - -;
#X obj 138 324 +;
#X floatatom 127 410 5 0 0 0 - - -;
#X floatatom 190 410 5 0 0 0 - - -;
#X obj 177 198 - 5;
#X obj 249 80 metro 5;
#X msg 316 74 0;
#X obj 137 146 t f b;
#X obj 140 111 f;
#X floatatom 333 108 5 0 0 0 - - -;
#X obj 140 48 bng 15 250 50 0 empty empty empty 17 7 0 10 -262144 -1
-1;
#X floatatom 66 408 5 0 0 0 - - -;
#X floatatom 275 124 5 0 0 0 - - -;
#X obj 253 54 0;
#X obj 51 28 bng 15 250 50 0 empty empty empty 17 7 0 10 -262144 -1
-1;
#X obj 82 86 + 1;
#X obj 82 54 0;
#X obj 45 85 0;
#X obj 78 29 bng 15 250 50 0 empty empty empty 17 7 0 10 -262144 -1
-1;
#X obj 175 230 * 1;
#X floatatom 215 224 5 0 0 0 - - -;
#X obj 266 155 - 1;
#X obj 267 176 / 2;
#X obj 486 189 line;
#X obj 486 210 i;
#X obj 486 231 change;
#X msg 435 137 stop;
#X obj 654 23 vsl 15 512 0 4095 0 0 empty empty empty 0 -9 0 10 -262144
-1 -1 26193 1;
#X obj 672 23 vsl 15 512 0 4095 0 0 empty empty empty 0 -9 0 10 -262144
-1 -1 26168 1;
#X obj 98 460 i;
#X obj 66 428 t f f b;
#X text 208 376 firstVal \, minDiv \, forceDif \, minFallCount \, ignoreWithin
;
#X obj 620 23 vsl 15 512 0 4095 0 0 empty empty empty 0 -9 0 10 -262144
-1 -1 19100 1;
#X msg 479 110 4095 30000;
#X obj 72 374 adcsmooth 10 0.6 50;
#X msg 507 141 0 300000;
#X connect 0 0 41 0;
#X connect 1 0 20 0;
#X connect 2 0 12 0;
#X connect 4 0 15 0;
#X connect 5 0 41 2;
#X connect 6 0 11 0;
#X connect 7 0 8 1;
#X connect 8 0 34 0;
#X connect 8 0 41 1;
#X connect 11 0 26 0;
#X connect 12 0 15 0;
#X connect 13 0 12 0;
#X connect 14 0 8 0;
#X connect 14 1 6 0;
#X connect 15 0 14 0;
#X connect 16 0 12 1;
#X connect 17 0 4 0;
#X connect 18 0 35 0;
#X connect 18 0 37 0;
#X connect 19 0 6 1;
#X connect 19 0 28 0;
#X connect 20 0 12 0;
#X connect 21 0 24 0;
#X connect 22 0 24 1;
#X connect 22 0 4 0;
#X connect 23 0 24 1;
#X connect 24 0 22 0;
#X connect 25 0 23 0;
#X connect 26 0 7 0;
#X connect 27 0 26 1;
#X connect 28 0 29 0;
#X connect 29 0 11 1;
#X connect 30 0 31 0;
#X connect 31 0 32 0;
#X connect 32 0 4 0;
#X connect 33 0 30 0;
#X connect 37 1 36 1;
#X connect 37 2 36 0;
#X connect 39 0 4 0;
#X connect 40 0 30 0;
#X connect 41 0 18 0;
#X connect 41 1 9 0;
#X connect 41 2 10 0;
#X connect 42 0 30 0;
