#N canvas 432 138 987 675 10;
#X msg 60 300 bang;
#X obj 120 303 i;
#X obj 165 303 i;
#X obj 454 184 1;
#X obj 454 163 loadbang;
#X floatatom 116 273 5 0 0 0 - - -;
#X floatatom 166 278 5 0 0 0 - - -;
#X obj 450 210 metro 2;
#X msg 505 184 1;
#X obj 51 347 layerlogic, f 35;
#X floatatom 53 389 5 0 0 0 - - -;
#X floatatom 88 390 5 0 0 0 - - -;
#X floatatom 123 390 5 0 0 0 - - -;
#X floatatom 158 391 5 0 0 0 - - -;
#X floatatom 194 391 5 0 0 0 - - -;
#X floatatom 229 392 5 0 0 0 - - -;
#X floatatom 264 392 5 0 0 0 - - -;
#X obj 60 271 t b;
#X obj 125 35 hsl 128 15 0 127 0 0 empty empty empty -2 -8 0 10 -262144
-1 -1 4700 1;
#X obj 121 137 / 127;
#X obj 121 158 * 7;
#X obj 121 179 i;
#X obj 121 200 change;
#X obj 173 114 hsl 128 15 0 127 0 0 empty empty empty -2 -8 0 10 -262144
-1 -1 600 1;
#X obj 169 152 / 127;
#X obj 169 173 * 7;
#X obj 169 194 i;
#X obj 169 212 change;
#X obj 283 90 spigot;
#X obj 313 60 tgl 15 0 empty empty empty 17 7 0 10 -262144 -1 -1 0
1;
#X obj 126 59 t f f;
#X obj 258 277 * 7;
#X obj 247 229 > 6;
#X obj 114 225 expr if($f1 < 7 \, $f1 \, 0) \;;
#X obj 113 249 sel 0;
#X obj 166 250 sel 0;
#X connect 0 0 9 0;
#X connect 1 0 9 1;
#X connect 2 0 9 2;
#X connect 3 0 7 0;
#X connect 4 0 3 0;
#X connect 5 0 1 0;
#X connect 6 0 2 0;
#X connect 8 0 7 0;
#X connect 9 0 10 0;
#X connect 9 1 11 0;
#X connect 9 2 12 0;
#X connect 9 3 13 0;
#X connect 9 4 14 0;
#X connect 9 5 15 0;
#X connect 9 6 16 0;
#X connect 17 0 0 0;
#X connect 18 0 30 0;
#X connect 19 0 20 0;
#X connect 20 0 21 0;
#X connect 21 0 22 0;
#X connect 22 0 33 0;
#X connect 23 0 24 0;
#X connect 24 0 25 0;
#X connect 25 0 26 0;
#X connect 26 0 27 0;
#X connect 26 0 32 0;
#X connect 27 0 35 0;
#X connect 28 0 23 0;
#X connect 29 0 28 1;
#X connect 30 0 19 0;
#X connect 30 1 28 0;
#X connect 31 0 9 3;
#X connect 32 0 31 0;
#X connect 33 0 34 0;
#X connect 34 1 5 0;
#X connect 35 1 6 0;
