#N canvas 432 138 987 675 10;
#X msg 60 207 bang;
#X obj 47 324 list trim;
#X obj 310 487 bng 15 250 50 0 empty empty empty 17 7 0 10 -262144
-1 -1;
#X text 112 523 recording;
#X obj 59 447 tgl 15 0 empty empty empty 17 7 0 10 -262144 -1 -1 0
1;
#X obj 46 419 1;
#X obj 83 419 0;
#X text 298 507 trigger;
#X obj 47 301 buttoncombinations;
#X obj 117 191 tgl 15 0 empty empty empty 17 7 0 10 -262144 -1 -1 0
1;
#X obj 161 193 tgl 15 0 empty empty empty 17 7 0 10 -262144 -1 -1 0
1;
#X obj 198 191 tgl 15 0 empty empty empty 17 7 0 10 -262144 -1 -1 0
1;
#X obj 116 225 i;
#X obj 161 225 i;
#X obj 198 225 i;
#X obj 277 152 1;
#X obj 277 131 loadbang;
#X obj 360 484 bng 15 250 50 0 empty empty empty 17 7 0 10 -262144
-1 -1;
#X obj 127 498 tgl 15 0 empty empty empty 17 7 0 10 -262144 -1 -1 0
1;
#X obj 120 434 1;
#X obj 152 434 0;
#X text 179 525 shift+capt;
#X obj 130 58 key;
#X obj 174 57 keyup;
#X floatatom 130 79 5 0 0 0 - - -;
#X floatatom 174 78 5 0 0 0 - - -;
#X obj 117 151 sel 17 23 5;
#X text 215 87 shift+ctl+alt Q \, W \, E;
#X text 357 507 shift+trig;
#X obj 179 502 tgl 15 0 empty empty empty 17 7 0 10 -262144 -1 -1 0
1;
#X obj 182 435 1;
#X obj 214 435 0;
#X text 54 472 shiftMode;
#X obj 410 440 bng 15 250 50 0 empty empty empty 17 7 0 10 -262144
-1 -1;
#X text 406 460 savingFiles;
#X obj 47 368 route shiftMode_on shiftMode_off recordingOn recordingOff
shift+capt_on shift+capt_off trigger shift+trig savingFiles;
#X obj 273 178 metro 2;
#X msg 328 152 1;
#X floatatom 175 267 5 0 0 0 - - -;
#X text 221 268 scan;
#X text 82 175 shift;
#X text 142 174 capt;
#X text 201 174 trig;
#X obj 524 431 tgl 15 0 empty empty empty 17 7 0 10 -262144 -1 -1 0
1;
#X obj 511 403 1;
#X obj 548 403 0;
#X text 519 456 shiftScanMode;
#X obj 504 369 route shiftScanMode_on shiftScanMode_off shiftCaptScanMode_on
shiftCaptScanMode_off;
#X obj 640 434 tgl 15 0 empty empty empty 17 7 0 10 -262144 -1 -1 0
1;
#X obj 627 406 1;
#X obj 664 406 0;
#X text 635 459 shiftCaptScanMode;
#X msg 260 228 cancelRecord;
#X obj 95 345 print;
#X connect 0 0 8 0;
#X connect 1 0 35 0;
#X connect 1 0 53 0;
#X connect 5 0 4 0;
#X connect 6 0 4 0;
#X connect 8 0 1 0;
#X connect 9 0 12 0;
#X connect 10 0 13 0;
#X connect 11 0 14 0;
#X connect 12 0 8 1;
#X connect 13 0 8 2;
#X connect 14 0 8 3;
#X connect 15 0 36 0;
#X connect 16 0 15 0;
#X connect 19 0 18 0;
#X connect 20 0 18 0;
#X connect 22 0 24 0;
#X connect 23 0 25 0;
#X connect 24 0 26 0;
#X connect 25 0 26 0;
#X connect 26 0 9 0;
#X connect 26 1 10 0;
#X connect 26 2 11 0;
#X connect 30 0 29 0;
#X connect 31 0 29 0;
#X connect 35 0 5 0;
#X connect 35 1 6 0;
#X connect 35 2 19 0;
#X connect 35 3 20 0;
#X connect 35 4 30 0;
#X connect 35 5 31 0;
#X connect 35 6 2 0;
#X connect 35 7 17 0;
#X connect 35 8 33 0;
#X connect 35 9 47 0;
#X connect 36 0 12 0;
#X connect 36 0 14 0;
#X connect 36 0 13 0;
#X connect 37 0 36 0;
#X connect 38 0 8 4;
#X connect 44 0 43 0;
#X connect 45 0 43 0;
#X connect 47 0 44 0;
#X connect 47 1 45 0;
#X connect 47 2 49 0;
#X connect 47 3 50 0;
#X connect 49 0 48 0;
#X connect 50 0 48 0;
#X connect 52 0 8 0;
