#N canvas 571 104 515 617 10;
#X msg 7 234 bang;
#X obj 47 301 bufferlogic;
#X floatatom 116 225 5 0 0 0 - - -;
#X floatatom 161 225 5 0 0 0 - - -;
#X text 82 175 state;
#X text 142 174 layer;
#X floatatom 47 328 5 0 0 0 - - -;
#X floatatom 99 327 5 0 0 0 - - -;
#X obj 92 249 t b f;
#X msg 32 193 logRecord;
#X msg 50 150 getBufOp;
#X obj 47 358 list prepend;
#X obj 47 379 list trim;
#X obj 47 400 route 0 1 2 3 4 5, f 41;
#X floatatom 47 421 5 0 0 0 - - -;
#X floatatom 88 421 5 0 0 0 - - -;
#X floatatom 128 421 5 0 0 0 - - -;
#X floatatom 169 421 5 0 0 0 - - -;
#X floatatom 209 421 5 0 0 0 - - -;
#X floatatom 250 421 5 0 0 0 - - -;
#X msg 55 272 print;
#X connect 0 0 1 0;
#X connect 1 0 6 0;
#X connect 1 1 7 0;
#X connect 2 0 8 0;
#X connect 3 0 1 2;
#X connect 6 0 11 0;
#X connect 7 0 11 1;
#X connect 8 0 20 0;
#X connect 8 1 1 1;
#X connect 9 0 1 0;
#X connect 10 0 1 0;
#X connect 11 0 12 0;
#X connect 12 0 13 0;
#X connect 13 0 14 0;
#X connect 13 1 15 0;
#X connect 13 2 16 0;
#X connect 13 3 17 0;
#X connect 13 4 18 0;
#X connect 13 5 19 0;
#X connect 20 0 1 0;
